<?xml version="1.0" encoding="UTF-8" standalone="no"?><!-- Generator: Gravit.io --><svg xmlns="http://www.w3.org/2000/svg" xmlns:xlink="http://www.w3.org/1999/xlink" style="isolation:isolate" viewBox="-170 -167.21 1377.188 609.675" width="1377.188pt" height="609.675pt"><defs><clipPath id="_clipPath_0s33OeHcPXp6UIDRES0DI2OcjGQhDxu6"><rect x="-170" y="-167.21" width="1377.188" height="609.675"/></clipPath></defs><g clip-path="url(#_clipPath_0s33OeHcPXp6UIDRES0DI2OcjGQhDxu6)"><g/><path d=" M 321 202.32 L 320.97 202.32 L 321 247.32 C 321.01 258.33 318.81 269.22 314.53 279.36 C 310.37 289.17 304.35 298.08 296.82 305.61 C 289.29 313.15 280.38 319.16 270.57 323.32 C 260.43 327.6 249.54 329.8 238.54 329.79 L 238.5 329.79 L 238.5 329.79 C 238.49 329.79 238.48 329.79 238.46 329.79 C 227.46 329.8 216.56 327.6 206.43 323.32 C 196.62 319.16 187.71 313.15 180.18 305.61 C 172.64 298.08 166.63 289.17 162.47 279.36 C 158.19 269.23 155.99 258.33 156 247.33 L 156 247.29 L 156 247.29 C 156 247.28 156 247.27 156 247.26 C 155.99 236.25 158.19 225.36 162.47 215.22 C 166.63 205.41 172.65 196.5 180.19 188.97 C 187.71 181.43 196.63 175.42 206.43 171.26 C 216.58 166.98 227.48 164.78 238.49 164.79 C 243.48 164.79 248.47 165.23 253.38 166.12 L 297.65 174.15 L 313.71 85.6 L 269.43 77.57 C 259.23 75.72 248.88 74.79 238.51 74.79 C 215.44 74.78 192.61 79.4 171.36 88.37 C 150.88 97.05 132.27 109.6 116.55 125.33 C 100.81 141.05 88.26 159.66 79.59 180.14 C 70.61 201.39 65.99 224.22 66 247.29 C 66 247.3 66 247.31 66 247.32 L 66 247.32 L 66 247.29 C 65.99 270.35 70.61 293.19 79.58 314.43 C 88.26 334.91 100.81 353.53 116.54 369.25 C 132.26 384.98 150.88 397.53 171.36 406.21 C 192.6 415.18 215.44 419.8 238.5 419.79 C 261.56 419.8 284.4 415.18 305.64 406.21 C 326.12 397.53 344.74 384.98 360.46 369.25 C 376.19 353.53 388.74 334.91 397.41 314.43 C 406.4 293.18 411.02 270.33 411 247.26 L 410.971 204.26 L 411 204.26 L 411 -167.21 L 321 -167.21 L 321 202.32 Z  M 238.5 329.79 C 238.51 329.79 238.52 329.79 238.54 329.79 L 238.5 329.79 L 238.5 329.79 Z  M 238.54 419.79 C 238.52 419.79 238.51 419.79 238.5 419.79 L 238.54 419.79 C 238.52 419.79 238.51 419.79 238.5 419.79 L 238.5 419.79 L 238.54 419.79 L 238.54 419.79 Z " fill-rule="evenodd" fill="rgb(74,78,77)"/><linearGradient id="_lgradient_8" x1="-0.17339458061755875" y1="0.24113631628626916" x2="1.0295087143463244" y2="0.8439354735798915" gradientTransform="matrix(196.504,0,0,246.897,122.206,172.893)" gradientUnits="userSpaceOnUse"><stop offset="2.608695652173913%" stop-opacity="1" style="stop-color:rgb(177,74,237)"/><stop offset="96.95652173913044%" stop-opacity="1" style="stop-color:rgb(245,93,62)"/></linearGradient><path d=" M 202.861 172.893 C 194.456 176.922 186.785 182.357 180.19 188.97 C 172.65 196.5 166.63 205.41 162.47 215.22 C 158.19 225.36 155.99 236.25 156 247.26 C 156 247.27 156 247.28 156 247.29 L 156 247.29 L 156 247.33 C 155.99 258.33 158.19 269.23 162.47 279.36 C 166.63 289.17 172.64 298.08 180.18 305.61 C 187.71 313.15 196.62 319.16 206.43 323.32 C 216.56 327.6 227.46 329.8 238.46 329.79 C 238.48 329.79 238.49 329.79 238.5 329.79 L 238.5 329.79 L 238.54 329.79 C 249.54 329.8 260.43 327.6 270.57 323.32 C 280.38 319.16 289.29 313.15 296.82 305.61 C 304.35 298.08 310.37 289.17 314.53 279.36 C 316.174 275.465 317.511 271.46 318.517 267.376 C 318.651 269.407 318.71 271.459 318.71 273.525 C 318.71 329.966 274.685 375.79 220.458 375.79 C 166.231 375.79 122.206 329.966 122.206 273.525 C 122.206 223.334 157.019 181.54 202.861 172.893 Z  M 238.5 329.79 C 238.51 329.79 238.52 329.79 238.54 329.79 L 238.5 329.79 L 238.5 329.79 Z  M 238.54 419.79 C 238.52 419.79 238.51 419.79 238.5 419.79 L 238.54 419.79 C 238.52 419.79 238.51 419.79 238.5 419.79 L 238.5 419.79 L 238.54 419.79 L 238.54 419.79 Z " fill-rule="evenodd" fill="url(#_lgradient_8)"/><path d=" M 577.733 77.918 C 577.742 77.916 577.752 77.914 577.762 77.912 C 600.411 73.522 623.702 73.724 646.271 78.506 C 668.024 83.13 688.679 91.919 707.101 104.388 C 725.529 116.836 741.384 132.725 753.795 151.184 C 766.636 170.345 775.506 191.882 779.876 214.535 C 781.845 224.716 782.897 235.054 783.017 245.42 L 783.54 290.419 L 693.551 291.463 L 693.03 246.474 C 692.972 241.484 692.457 236.501 691.509 231.602 C 689.429 220.79 685.199 210.506 679.07 201.353 C 673.125 192.521 665.531 184.905 656.701 178.953 C 647.876 172.98 637.985 168.761 627.564 166.539 C 616.796 164.262 605.686 164.169 594.878 166.269 C 594.868 166.271 594.859 166.273 594.849 166.275 L 594.849 166.275 L 594.81 166.283 C 584.008 168.361 573.724 172.591 564.59 178.716 C 555.749 184.663 548.142 192.255 542.18 201.088 C 536.207 209.912 531.998 219.801 529.776 230.222 C 527.497 240.981 527.406 252.1 529.505 262.898 C 529.508 262.918 529.51 262.928 529.512 262.937 L 529.512 262.937 L 529.52 262.977 C 531.598 273.779 535.826 284.053 541.953 293.196 C 547.9 302.038 555.492 309.645 564.325 315.606 C 573.147 321.57 583.038 325.789 593.459 328.01 Q 604.228 330.287 670.321 319.707 L 687.467 408.059 L 643.291 416.632 C 620.644 421.031 597.333 420.833 574.762 416.041 C 553.009 411.417 532.345 402.63 513.924 390.171 C 495.496 377.723 479.639 361.825 467.229 343.365 C 454.389 324.214 445.517 302.667 441.149 280.024 C 436.761 257.386 436.961 234.084 441.735 211.527 C 446.369 189.772 455.156 169.108 467.615 150.687 C 480.063 132.259 495.962 116.402 514.421 103.992 C 533.572 91.152 555.12 82.28 577.762 77.912 M 529.512 262.937 C 529.514 262.947 529.516 262.957 529.52 262.977 M 441.157 280.064 C 441.153 280.044 441.151 280.034 441.149 280.024 L 441.157 280.064 C 441.153 280.044 441.151 280.034 441.149 280.024 L 441.149 280.024" fill-rule="evenodd" fill="rgb(74,78,77)"/><linearGradient id="_lgradient_9" x1="-0.17339458061755875" y1="0.24113631628626916" x2="1.0295087143463244" y2="0.8439354735798915" gradientTransform="matrix(168.818,0,0,246.897,501.597,169.79)" gradientUnits="userSpaceOnUse"><stop offset="2.608695652173913%" stop-opacity="1" style="stop-color:rgb(177,74,237)"/><stop offset="97.3913043478261%" stop-opacity="1" style="stop-color:rgb(245,93,62)"/></linearGradient><path d=" M 582.252 169.79 C 573.847 173.819 566.176 179.254 559.581 185.866 C 552.041 193.396 546.021 202.306 541.861 212.116 C 537.581 222.256 535.381 233.146 535.391 244.156 C 535.391 244.166 535.391 244.176 535.391 244.186 L 535.391 244.186 L 535.391 244.226 C 535.381 255.226 537.581 266.126 541.861 276.256 C 546.021 286.066 552.031 294.976 559.571 302.506 C 567.101 310.046 576.011 316.056 585.821 320.216 Q 595.951 324.496 617.931 326.686 C 623.126 326.691 633.127 324.385 643.028 323.32 C 654.089 322.129 665.027 321.979 669 318 C 676.53 310.47 654.076 372.686 599.849 372.686 C 545.622 372.686 501.597 326.863 501.597 270.421 C 501.597 220.231 536.41 178.436 582.252 169.79 Z  M 617.931 416.686 C 617.911 416.686 617.901 416.686 617.891 416.686 L 617.931 416.686 C 617.911 416.686 617.901 416.686 617.891 416.686 L 617.891 416.686 L 617.931 416.686 L 617.931 416.686 Z " fill-rule="evenodd" fill="url(#_lgradient_9)"/><rect x="693.551" y="289.238" width="89.989" height="153.227" transform="matrix(1,0,0,1,0,0)" fill="rgb(74,78,77)"/></g></svg>